<svg xmlns="http://www.w3.org/2000/svg" width="16" height="16" viewBox="0 0 16 16" fill="none"><g clip-path="url(#clip0_650_272)"><rect width="16" height="16" rx="8" fill="#FFCF00"/><path d="M8.07326 6.36611C7.27805 6.36611 6.63358 7.08102 6.63358 7.96313C6.63358 8.84505 7.27805 9.56012 8.07326 9.56012C8.86838 9.56012 9.51293 8.84505 9.51293 7.96313C9.51293 7.08102 8.86838 6.36611 8.07326 6.36611ZM8.05084 11.7673C7.74402 11.7673 7.49518 12.0433 7.49518 12.3837C7.49518 12.724 7.74402 13 8.05084 13C8.35774 13 8.60641 12.724 8.60641 12.3837C8.60641 12.0433 8.35774 11.7673 8.05084 11.7673ZM11.5145 10.6445C11.8215 10.6445 12.0703 10.3686 12.0703 10.0282C12.0703 9.68776 11.8215 9.41182 11.5145 9.41182C11.2078 9.41182 10.959 9.68776 10.959 10.0282C10.959 10.3686 11.2078 10.6445 11.5145 10.6445ZM10.8009 5.68496C10.8009 6.02531 11.0496 6.30125 11.3565 6.30125C11.6633 6.30125 11.9121 6.02531 11.9121 5.68496C11.9121 5.34452 11.6633 5.06858 11.3565 5.06858C11.0496 5.06858 10.8009 5.34452 10.8009 5.68496ZM8.01225 4.23274C8.31907 4.23274 8.56782 3.9568 8.56782 3.61645C8.56782 3.2761 8.31907 3 8.01225 3C7.70534 3 7.45659 3.2761 7.45659 3.61645C7.45659 3.9568 7.70534 4.23274 8.01225 4.23274ZM5.17213 5.85697C5.17213 5.51653 4.92338 5.24062 4.61647 5.24062C4.30965 5.24062 4.06083 5.51653 4.06083 5.85697C4.06083 6.19742 4.30965 6.47326 4.61647 6.47326C4.92338 6.47326 5.17213 6.19742 5.17213 5.85697ZM3.47728 7.44212C3.21373 7.44212 3 7.67918 3 7.97147C3 8.26391 3.21373 8.50081 3.47728 8.50081C3.74084 8.50081 3.95457 8.26391 3.95457 7.97147C3.95457 7.67918 3.74084 7.44212 3.47728 7.44212ZM5.7715 4.12566C6.01502 4.12566 6.21242 3.9067 6.21242 3.63659C6.21242 3.36646 6.01502 3.14759 5.7715 3.14759C5.52807 3.14759 5.33076 3.36646 5.33076 3.63659C5.33076 3.9067 5.52807 4.12566 5.7715 4.12566ZM10.3118 4.15442C10.5693 4.15442 10.7779 3.92297 10.7779 3.63754C10.7779 3.35196 10.5693 3.12051 10.3118 3.12051C10.0545 3.12051 9.84584 3.35196 9.84584 3.63754C9.84584 3.92297 10.0545 4.15442 10.3118 4.15442ZM13 8.02358C13 7.74381 12.7955 7.5171 12.5434 7.5171C12.2912 7.5171 12.0868 7.74381 12.0868 8.02358C12.0868 8.30329 12.2912 8.53009 12.5434 8.53009C12.7955 8.53009 13 8.30329 13 8.02358ZM10.3103 11.8527C10.0656 11.8527 9.86722 12.0727 9.86722 12.3442C9.86722 12.6156 10.0656 12.8356 10.3103 12.8356C10.555 12.8356 10.7533 12.6156 10.7533 12.3442C10.7533 12.0727 10.555 11.8527 10.3103 11.8527ZM5.76104 11.8357C5.51327 11.8357 5.31254 12.0585 5.31254 12.3333C5.31254 12.608 5.51327 12.831 5.76104 12.831C6.00877 12.831 6.20955 12.608 6.20955 12.3333C6.20955 12.0585 6.00877 11.8357 5.76104 11.8357ZM5.17648 10.1914C5.17648 9.85107 4.92765 9.57516 4.62091 9.57516C4.31401 9.57516 4.06534 9.85107 4.06534 10.1914C4.06534 10.532 4.31401 10.8078 4.62091 10.8078C4.92765 10.8078 5.17648 10.532 5.17648 10.1914ZM6.63968 9.89687C6.26329 9.89687 5.9582 10.2354 5.9582 10.6529C5.9582 11.0705 6.26329 11.409 6.63968 11.409C7.01617 11.409 7.32117 11.0705 7.32117 10.6529C7.32117 10.2354 7.01617 9.89687 6.63968 9.89687ZM5.26039 8.74598C5.63688 8.74598 5.94203 8.40755 5.94203 7.99001C5.94203 7.57248 5.63688 7.23415 5.26039 7.23415C4.88414 7.23415 4.5789 7.57248 4.5789 7.99001C4.5789 8.40755 4.88414 8.74598 5.26039 8.74598ZM6.63904 4.60298C6.26265 4.60298 5.95741 4.94149 5.95741 5.35892C5.95741 5.77648 6.26265 6.11498 6.63904 6.11498C7.01553 6.11498 7.32053 5.77648 7.32053 5.35892C7.32053 4.94149 7.01553 4.60298 6.63904 4.60298ZM9.40674 6.09986C9.78323 6.09986 10.0882 5.76134 10.0882 5.34381C10.0882 4.92628 9.78323 4.58778 9.40674 4.58778C9.03026 4.58778 8.72519 4.92628 8.72519 5.34381C8.72519 5.76134 9.03026 6.09986 9.40674 6.09986ZM11.4718 8.01787C11.4718 7.60034 11.1668 7.26191 10.7904 7.26191C10.4139 7.26191 10.1088 7.60034 10.1088 8.01787C10.1088 8.43533 10.4139 8.77383 10.7904 8.77383C11.1668 8.77383 11.4718 8.43533 11.4718 8.01787ZM9.33377 9.92868C8.95737 9.92868 8.6522 10.2672 8.6522 10.6846C8.6522 11.1022 8.95737 11.4407 9.33377 11.4407C9.71017 11.4407 10.0153 11.1022 10.0153 10.6846C10.0153 10.2672 9.71017 9.92868 9.33377 9.92868Z" fill="#373435"/></g><defs><clipPath id="clip0_650_272"><rect width="16" height="16" rx="8" fill="white"/></clipPath></defs></svg>
